<svg fill="none" height="600" viewBox="0 0 600 600" width="600" xmlns="http://www.w3.org/2000/svg" xmlns:xlink="http://www.w3.org/1999/xlink"><clipPath id="a"><path d="m216 173h167v144h-167z"/></clipPath><path d="m0 0h600v600h-600z" fill="#262626"/><g clip-path="url(#a)"><path d="m338.688 209.016c0 1.641-.487 3.245-1.399 4.609-.911 1.365-2.207 2.428-3.723 3.056s-3.185.792-4.794.472-3.088-1.11-4.248-2.271c-1.16-1.16-1.951-2.638-2.271-4.248-.32-1.609-.156-3.277.472-4.793.628-1.517 1.692-2.812 3.056-3.724 1.365-.912 2.969-1.398 4.61-1.398 2.2 0 4.31.874 5.866 2.43s2.431 3.666 2.431 5.867zm-35.179 42.763c-.557-.466-1.201-.818-1.894-1.036-.693-.217-1.422-.296-2.145-.232-.724.064-1.428.27-2.072.606-.644.337-1.215.796-1.681 1.354l-27.657 33.187c-.938 1.128-1.391 2.582-1.257 4.044.133 1.461.842 2.809 1.97 3.748 1.127.939 2.582 1.391 4.043 1.258 1.461-.134 2.81-.842 3.749-1.97l27.656-33.188c.933-1.126 1.381-2.576 1.248-4.032-.133-1.457-.838-2.801-1.96-3.739zm79.429-34.467c0 .911-.224 1.808-.654 2.612-.429.803-1.05 1.488-1.808 1.993l-14.132 9.417v13.635c-.02 19.064-7.603 37.342-21.083 50.823-13.481 13.481-31.759 21.063-50.823 21.083h-71.907c-1.042.001-2.063-.293-2.946-.848-.883-.554-1.591-1.347-2.042-2.287-.452-.939-.629-1.987-.511-3.023.118-1.035.527-2.017 1.178-2.83l65.165-81.455v-11.885c-.009-9.91 3.529-19.495 9.974-27.022 6.446-7.527 15.373-12.498 25.166-14.013 9.793-1.516 19.804.524 28.224 5.75 8.419 5.227 14.689 13.294 17.676 22.743l16.061 10.703c.758.505 1.379 1.19 1.808 1.993.43.804.654 1.701.654 2.611zm-15.502 0-10.841-7.232c-1.131-.752-1.945-1.894-2.289-3.208-1.859-7.167-6.269-13.41-12.402-17.559-6.133-4.148-13.568-5.918-20.913-4.976-7.344.941-14.093 4.529-18.981 10.091-4.889 5.561-7.581 12.714-7.572 20.119v13.828c.001 1.256-.426 2.476-1.21 3.457l-59.192 73.98h60.402c16.131-.018 31.596-6.434 43.002-17.84 11.407-11.407 17.823-26.872 17.841-43.003v-16.594c0-.911.224-1.808.653-2.611.43-.803 1.051-1.488 1.809-1.994z" fill="#fb8"/></g><path d="m240.973 386.502c-1.512 10.206-7.623 16.506-16.191 16.506-11.151 0-17.703-9.009-17.703-23.31 0-14.427 6.552-23.436 17.703-23.436 8.127 0 14.175 5.922 15.939 15.624l-7.308.441c-1.323-6.426-4.473-9.576-8.757-9.576-6.615 0-10.269 5.985-10.269 16.947 0 10.899 3.654 16.821 10.269 16.821 4.662 0 7.875-3.339 9.009-10.395zm7.976-29.232h6.741v15.687c1.89-3.465 5.418-5.103 9.387-5.103 7.245 0 10.836 5.292 10.836 12.663v21.483h-6.804v-19.593c0-5.733-1.827-8.757-6.111-8.757-4.473 0-7.308 3.024-7.308 8.757v19.593h-6.741zm56.109 11.34v27.468h10.836v5.922h-30.303v-5.922h12.663v-21.546h-11.592v-5.922zm-7.182-4.599v-6.741h7.182v6.741zm38.783 4.599.441 6.3c1.197-4.284 3.906-6.3 8.316-6.3h6.867v5.922h-6.426c-4.914 0-7.056 2.646-7.056 7.938v13.608h10.395v5.922h-25.641v-5.922h8.442v-21.546h-8.442v-5.922zm24.105 42.84v-42.84h6.3l.189 5.04c1.953-3.717 5.166-5.796 9.891-5.796 9.261 0 13.797 7.812 13.797 17.451s-4.536 17.451-13.797 17.451c-4.41 0-7.623-1.953-9.576-5.481v14.175zm6.174-26.145c0 5.985 2.646 11.34 8.442 11.34s8.379-5.292 8.379-11.34-2.583-11.34-8.379-11.34-8.442 5.355-8.442 11.34z" fill="#fff"/></svg>